<svg width="23" height="21" viewBox="0 0 23 21" fill="none" xmlns="http://www.w3.org/2000/svg">
<path d="M22.4609 18.2734C22.5391 18.625 22.3438 18.9375 22.0312 19.0547L21.4062 19.2109C21.1328 19.2891 20.8203 19.1328 20.7031 18.8594C20.1562 18.8594 18.0859 19.4062 17.6562 19.6797C17.6562 19.9922 17.5 20.2656 17.1875 20.3438L16.6016 20.5C16.25 20.5781 15.8984 20.3828 15.8203 20.0703L11.875 5.03125V19.25C11.875 19.9531 11.2891 20.5 10.3125 20.5H0.9375C0.546875 20.5 0 19.9531 0 19.25V1.75C0 1.08594 0.546875 0.5 0.9375 0.5H10.3125C11.2891 0.5 11.875 1.08594 11.875 1.75V1.94531L12.3047 1.82812C12.5781 1.75 12.8906 1.90625 13.0078 2.17969C13.5547 2.17969 15.625 1.63281 16.0547 1.35938C16.0547 1.04688 16.2109 0.773438 16.5234 0.695312L17.1094 0.539062C17.4609 0.460938 17.8125 0.65625 17.8906 0.96875L22.4609 18.2734ZM5 18.625V16.75H1.875V18.625H5ZM5 14.875V6.125H1.875V14.875H5ZM5 4.25V2.375H1.875V4.25H5ZM10 18.625V16.75H6.875V18.625H10ZM10 14.875V6.125H6.875V14.875H10ZM10 4.25V2.375H6.875V4.25H10ZM17.2266 18.1562C17.8906 17.8438 19.6094 17.4141 20.2734 17.3359L16.4844 2.88281C15.8203 3.19531 14.1016 3.625 13.4375 3.70312L17.2266 18.1562Z" fill="white"/>
</svg>
