<svg width="28" height="23" viewBox="0 0 28 23" fill="none" xmlns="http://www.w3.org/2000/svg">
<path d="M4.72656 20.6875H10.2266C10.3984 21.332 10.957 22.2344 11.4297 22.707C11.3008 22.75 11.0859 22.75 11 22.75H4.125H4.08203C3.39453 22.75 2.79297 22.1914 2.75 21.5039L1.41797 8.3125H0.6875C0.300781 8.3125 0 8.01172 0 7.625V6.9375C0 6.59375 0.300781 6.25 0.6875 6.25H6.74609L7.77734 2.08203C7.94922 1.35156 8.72266 0.75 9.45312 0.75H11.6875C12.0312 0.75 12.375 1.09375 12.375 1.4375V2.125C12.375 2.51172 12.0312 2.8125 11.6875 2.8125H9.71094L8.85156 6.25H14.4375C14.7812 6.25 15.125 6.59375 15.125 6.9375V7.625C15.125 8.01172 14.7812 8.3125 14.4375 8.3125H3.48047L4.72656 20.6875ZM22.6875 14.1562C22.3008 14.1562 22 13.8555 22 13.4688C22 13.125 22.3008 12.7812 22.6875 12.7812C23.0312 12.7812 23.375 13.125 23.375 13.4688C23.375 13.8555 23.0312 14.1562 22.6875 14.1562ZM19.25 13.4688C18.8633 13.4688 18.5625 13.168 18.5625 12.7812C18.5625 12.4375 18.8633 12.0938 19.25 12.0938C19.5938 12.0938 19.9375 12.4375 19.9375 12.7812C19.9375 13.168 19.5938 13.4688 19.25 13.4688ZM27.5 16.9062C27.457 17.3359 27.2422 17.8945 26.9414 18.1523C27.0273 18.4531 27.1562 18.8828 27.1562 19.1406C27.1133 21.1602 25.5234 22.75 23.5469 22.75H14.9531C12.9336 22.75 11.3438 21.1602 11.3438 19.1406C11.3438 18.8828 11.4297 18.4531 11.5156 18.1523C11.2148 17.8945 11 17.3359 11 16.9062C11 16.3906 11.2578 15.918 11.6875 15.5742C11.4727 15.2305 11.3438 14.5859 11.3438 14.1562C11.3438 13.6406 11.5586 12.8242 11.9023 12.3945C13.3203 10.332 16.1992 9.04297 19.25 9C22.2578 9.04297 25.1367 10.332 26.5547 12.3945C26.8984 12.8242 27.1133 13.6406 27.1133 14.1562C27.1133 14.5859 26.9844 15.2305 26.8125 15.5742C27.1992 15.918 27.5 16.3906 27.5 16.9062ZM13.5781 13.5977C13.4922 13.7266 13.4062 13.9844 13.4062 14.1562C13.4062 14.7578 13.8359 15.1875 14.4375 15.1875H24.0195C24.6211 15.1875 25.0508 14.7578 25.0508 14.1562C25.0508 13.9844 24.9648 13.7266 24.8789 13.5977C23.8906 12.1797 21.7422 11.0625 19.25 11.0625C16.7148 11.1055 14.5664 12.1797 13.5781 13.5977ZM23.5469 20.6875C24.3633 20.6875 25.0938 20 25.0938 19.1406C25.0938 18.8828 24.8359 18.625 24.5781 18.625H13.9219C13.6211 18.625 13.4062 18.8828 13.4062 19.1406C13.4062 20 14.0938 20.6875 14.9531 20.6875H23.5469ZM15.8125 14.1562C15.4258 14.1562 15.125 13.8555 15.125 13.4688C15.125 13.125 15.4258 12.7812 15.8125 12.7812C16.1562 12.7812 16.5 13.125 16.5 13.4688C16.5 13.8555 16.1562 14.1562 15.8125 14.1562Z" fill="white"/>
</svg>
