<svg width="25" height="20" viewBox="0 0 25 20" fill="none" xmlns="http://www.w3.org/2000/svg">
<path d="M22.6875 0.125C23.8047 0.125 24.75 1.07031 24.75 2.1875V17.3125C24.75 18.4727 23.8047 19.375 22.6875 19.375H2.0625C0.902344 19.375 0 18.4727 0 17.3125V2.1875C0 1.07031 0.902344 0.125 2.0625 0.125H22.6875ZM22.6875 17.3125V4.9375H2.0625V17.3125H3.4375C3.39453 17.1406 3.4375 17.4844 3.4375 16.3672C3.4375 14.9922 4.72656 13.875 6.31641 13.875C6.78906 13.875 7.08984 14.2188 8.25 14.2188C9.36719 14.2188 9.71094 13.875 10.1406 13.875C11.7305 13.875 13.0625 14.9922 13.0625 16.3672C13.0625 17.4844 13.0625 17.1406 13.0195 17.3125H22.6875ZM15.4688 13.875C15.2539 13.875 15.125 13.7461 15.125 13.5312V12.8438C15.125 12.6719 15.2539 12.5 15.4688 12.5H20.2812C20.4531 12.5 20.625 12.6719 20.625 12.8438V13.5312C20.625 13.7461 20.4531 13.875 20.2812 13.875H15.4688ZM15.4688 11.125C15.2539 11.125 15.125 10.9961 15.125 10.7812V10.0938C15.125 9.92188 15.2539 9.75 15.4688 9.75H20.2812C20.4531 9.75 20.625 9.92188 20.625 10.0938V10.7812C20.625 10.9961 20.4531 11.125 20.2812 11.125H15.4688ZM15.4688 8.375C15.2539 8.375 15.125 8.24609 15.125 8.03125V7.34375C15.125 7.17188 15.2539 7 15.4688 7H20.2812C20.4531 7 20.625 7.17188 20.625 7.34375V8.03125C20.625 8.24609 20.4531 8.375 20.2812 8.375H15.4688ZM8.25 12.5C6.70312 12.5 5.5 11.2969 5.5 9.75C5.5 8.24609 6.70312 7 8.25 7C9.75391 7 11 8.24609 11 9.75C11 11.2969 9.75391 12.5 8.25 12.5Z" fill="#000D25"/>
</svg>
