<svg width="118" height="118" viewBox="0 0 118 118" fill="none" xmlns="http://www.w3.org/2000/svg">
<circle cx="59" cy="59" r="59" fill="#000D25"/>
<path d="M59 0C91.5927 0 118 26.4073 118 59C118 91.5927 91.5927 118 59 118C26.4073 118 0 91.5927 0 59C0 26.4073 26.4073 0 59 0ZM59 22.8387C47.3427 22.8387 38.0645 32.3548 38.0645 43.7742C38.0645 55.4315 47.3427 64.7097 59 64.7097C70.4194 64.7097 79.9355 55.4315 79.9355 43.7742C79.9355 32.3548 70.4194 22.8387 59 22.8387ZM59 104.677C72.7984 104.677 85.4073 98.4919 93.7339 88.5C89.2137 80.1734 80.4113 74.2258 70.4194 74.2258C69.7056 74.2258 69.2298 74.4637 68.5161 74.7016C65.6613 75.6532 62.3306 76.129 59 76.129C55.4315 76.129 52.3387 75.6532 49.246 74.7016C48.5323 74.4637 48.0565 74.2258 47.5806 74.2258C37.3508 74.2258 28.5484 80.1734 24.0282 88.5C32.3548 98.4919 44.9637 104.677 59 104.677Z" fill="#ffffff"/>
</svg>
