<svg width="24" height="21" viewBox="0 0 24 21" fill="none" xmlns="http://www.w3.org/2000/svg">
<path d="M20.6797 2.54297C23.9023 5.25 23.4297 9.67578 21.1523 12.0391L13.5898 19.7305C13.1602 20.1602 12.6016 20.418 12 20.418C11.3555 20.418 10.7969 20.1602 10.3672 19.7305L2.84766 12.0391C0.527344 9.67578 0.0546875 5.25 3.27734 2.54297C5.76953 0.4375 9.59375 0.738281 12 3.1875C14.3633 0.738281 18.1875 0.4375 20.6797 2.54297ZM19.6484 10.5781C21.2383 8.98828 21.5391 5.98047 19.3477 4.08984C17.6719 2.71484 15.0938 2.92969 13.5039 4.5625L12 6.10938L10.4961 4.5625C8.86328 2.92969 6.28516 2.71484 4.60938 4.13281C2.41797 5.98047 2.71875 8.98828 4.30859 10.5781L11.8281 18.2695C11.957 18.3555 12.043 18.3555 12.1289 18.2695L19.6484 10.5781Z" fill="white"/>
</svg>
