<svg width="22" height="23" viewBox="0 0 22 23" fill="none" xmlns="http://www.w3.org/2000/svg">
<path d="M6.1875 15.5312C7.30469 15.5312 8.25 16.4766 8.25 17.5938C8.25 18.7539 7.30469 19.6562 6.1875 19.6562C5.02734 19.6562 4.125 18.7539 4.125 17.5938C4.125 16.4766 5.02734 15.5312 6.1875 15.5312ZM4.33984 9.90234L0.988281 6.55078C0.429688 5.99219 0 4.91797 0 4.14453C0 3.28516 0.515625 2.08203 1.20312 1.52344C2.44922 0.535156 4.21094 0.535156 5.5 1.48047C6.74609 0.535156 8.50781 0.535156 9.75391 1.52344C10.3984 2.08203 10.957 3.24219 10.957 4.14453C10.957 4.91797 10.5273 5.99219 9.96875 6.55078L6.61719 9.90234C6.35938 10.1602 5.84375 10.375 5.45703 10.375C5.11328 10.375 4.59766 10.1602 4.33984 9.90234ZM2.53516 3.11328C2.27734 3.32812 2.01953 3.80078 2.01953 4.14453C2.01953 4.44531 2.23438 4.875 2.44922 5.08984L5.45703 8.14062L8.50781 5.08984C8.72266 4.875 8.89453 4.44531 8.89453 4.14453C8.89453 3.80078 8.67969 3.32812 8.42188 3.11328C7.90625 2.68359 7.08984 2.76953 6.53125 3.28516L5.5 4.35938L4.42578 3.28516C4.16797 3.02734 3.69531 2.85547 3.35156 2.8125C3.35156 2.8125 3.35156 2.8125 3.30859 2.8125C3.09375 2.8125 2.70703 2.94141 2.53516 3.11328ZM17.0586 16.2188H22L18.7773 22.2344C18.6055 22.5352 18.1758 22.793 17.832 22.793C17.2734 22.793 16.8008 22.3203 16.8008 21.7617C16.8008 21.5898 16.8438 21.375 16.9297 21.2461L18.5195 18.2812H13.8359L16.5859 12.3516C16.7148 12.0078 17.1445 11.707 17.5312 11.707C18.0898 11.707 18.5625 12.1797 18.5625 12.7383C18.5625 12.9102 18.5195 13.125 18.4336 13.2109L17.0586 16.2188ZM10.957 13.125C11.7305 13.125 12.332 13.7695 12.332 14.5V21.375C12.332 22.1484 11.7305 22.75 10.957 22.75H1.375C0.601562 22.75 0 22.1484 0 21.375V14.5C0 13.7695 0.601562 13.125 1.375 13.125H2.53516L2.83594 12.5234C3.00781 12.0938 3.48047 11.75 3.95312 11.75H8.37891C8.85156 11.75 9.32422 12.0938 9.49609 12.5234L9.79688 13.125H10.957ZM10.2695 20.6875V15.1875H8.50781L7.94922 14.0703L7.82031 13.8125H4.51172L4.38281 14.0703L3.82422 15.1875H2.0625V20.6875H10.2695ZM15.082 9.6875C15.082 10.8477 13.8789 11.793 12.332 11.793C10.8281 11.793 9.58203 10.8477 9.58203 9.73047C9.58203 8.57031 10.8281 7.625 12.332 7.625C12.5469 7.625 12.8477 7.66797 13.0195 7.71094V3.11328C13.0195 2.42578 13.4922 1.86719 14.1367 1.78125L20.4961 0.792969C20.582 0.792969 20.668 0.792969 20.7109 0.75C21.3984 0.75 21.957 1.39453 21.957 2.125V8.3125C21.957 9.47266 20.7539 10.375 19.207 10.375C17.7031 10.375 16.457 9.47266 16.457 8.3125C16.457 7.19531 17.7031 6.25 19.207 6.25C19.4219 6.25 19.7227 6.29297 19.8945 6.33594V2.94141L15.082 3.71484V9.6875Z" fill="white"/>
</svg>
