<svg width="24" height="20" viewBox="0 0 24 20" fill="none" xmlns="http://www.w3.org/2000/svg">
<path d="M4.17969 11.082C4.05078 11.125 3.87891 11.125 3.75 11.125C2.63281 11.125 1.51562 10.2227 1.12891 8.93359C0.65625 7.42969 1.34375 6.01172 2.58984 5.71094C2.71875 5.66797 2.89062 5.625 3.01953 5.625C4.13672 5.625 5.25391 6.52734 5.64062 7.85938C6.11328 9.36328 5.42578 10.7812 4.17969 11.082ZM2.76172 8.46094C2.97656 9.10547 3.44922 9.40625 3.75 9.40625C3.83594 9.40625 3.87891 9.40625 3.96484 9.27734C4.05078 9.10547 4.13672 8.76172 4.00781 8.33203C3.79297 7.6875 3.32031 7.34375 3.01953 7.34375L2.97656 7.38672C2.93359 7.38672 2.89062 7.38672 2.80469 7.51562C2.71875 7.6875 2.63281 8.03125 2.76172 8.46094ZM14.6641 6.95703C13.332 6.61328 12.6875 4.80859 13.1602 2.96094C13.6328 1.28516 14.8359 0.125 16.0391 0.125C16.168 0.125 16.3828 0.167969 16.5117 0.210938C17.8438 0.554688 18.4883 2.35938 18.0156 4.20703C17.543 5.88281 16.3398 7 15.1367 7C14.9648 7 14.8359 7 14.6641 6.95703ZM14.8359 3.39062C14.6211 4.16406 14.75 4.80859 14.9219 5.10938C15.0078 5.23828 15.0508 5.28125 15.0938 5.28125C15.3945 5.28125 16.082 4.76562 16.3398 3.77734C16.5547 3.00391 16.4258 2.35938 16.2539 2.05859C16.168 1.92969 16.125 1.88672 16.082 1.88672L16.0391 1.84375C15.7812 1.84375 15.0938 2.40234 14.8359 3.39062ZM21.3672 5.71094C22.6133 6.01172 23.3008 7.42969 22.8281 8.93359C22.4414 10.2227 21.3242 11.125 20.207 11.125C20.0781 11.125 19.9062 11.125 19.7773 11.082C18.5312 10.7812 17.8438 9.36328 18.3164 7.85938C18.7031 6.52734 19.8203 5.625 20.9375 5.625C21.0664 5.625 21.2383 5.66797 21.3672 5.71094ZM21.1953 8.46094C21.3242 8.03125 21.2383 7.6875 21.1523 7.51562C21.0664 7.38672 21.0234 7.38672 20.9805 7.38672L20.9375 7.34375C20.6367 7.34375 20.1641 7.6875 19.9492 8.33203C19.8203 8.76172 19.9062 9.10547 19.9922 9.27734C20.0781 9.40625 20.1211 9.40625 20.1641 9.40625C20.5078 9.40625 20.9805 9.0625 21.1953 8.46094ZM8.82031 7C7.61719 7 6.41406 5.88281 5.94141 4.20703C5.46875 2.35938 6.11328 0.554688 7.44531 0.210938C7.61719 0.167969 7.74609 0.125 7.91797 0.125C9.12109 0.125 10.3242 1.28516 10.7969 2.96094C11.2695 4.80859 10.625 6.61328 9.29297 6.95703C9.12109 7 8.99219 7 8.82031 7ZM7.70312 2.05859C7.53125 2.35938 7.40234 3.00391 7.61719 3.77734C7.875 4.76562 8.5625 5.28125 8.82031 5.28125C8.90625 5.28125 8.94922 5.23828 9.03516 5.10938C9.20703 4.80859 9.33594 4.16406 9.12109 3.39062C8.86328 2.40234 8.17578 1.84375 7.91797 1.84375L7.875 1.88672C7.83203 1.88672 7.78906 1.92969 7.70312 2.05859ZM12 8.375C15.3945 8.375 20.25 13.6602 20.25 17.0117C20.25 18.5156 19.0898 19.375 17.1562 19.375C15.0508 19.375 13.6758 18.3008 12 18.3008C10.2812 18.3008 8.90625 19.375 6.80078 19.375C4.86719 19.375 3.75 18.5156 3.75 17.0117C3.75 13.6602 8.5625 8.375 12 8.375ZM18.1445 17.1406C18.1445 17.1406 18.1875 17.0977 18.1875 17.0117C18.1875 14.6914 14.1914 10.4375 12 10.4375C9.76562 10.4375 5.8125 14.6914 5.8125 17.0117C5.8125 17.0977 5.8125 17.1406 5.8125 17.1406C5.85547 17.1836 6.11328 17.3125 6.80078 17.3125C7.57422 17.3125 8.26172 17.0977 9.03516 16.8398C9.89453 16.582 10.8398 16.2383 12 16.2383C13.1172 16.2383 14.1055 16.582 14.9219 16.8398C15.6953 17.0977 16.3828 17.3125 17.1562 17.3125C17.8438 17.3125 18.1016 17.1836 18.1445 17.1406Z" fill="white"/>
</svg>
