<svg width="29" height="21" viewBox="0 0 29 21" fill="none" xmlns="http://www.w3.org/2000/svg">
<path d="M27.8125 18.6875C28.1562 18.6875 28.5 19.0312 28.5 19.375V20.0625C28.5 20.4492 28.1562 20.75 27.8125 20.75H1.6875C1.30078 20.75 1 20.4492 1 20.0625V19.375C1 19.0312 1.30078 18.6875 1.6875 18.6875H27.8125ZM4.17969 14.5625L1.51562 11.5117C1.21484 11.2109 0.957031 10.6094 0.957031 10.1797C0.957031 10.0508 1 9.87891 1 9.79297C1.12891 9.23438 1.60156 8.58984 2.07422 8.33203L2.76172 7.98828C3.0625 7.81641 3.40625 7.73047 3.75 7.73047C4.00781 7.73047 4.4375 7.81641 4.69531 7.98828L7.05859 9.19141L9.9375 7.6875H9.98047H9.9375L5.46875 4.76562C4.95312 4.42188 4.56641 3.64844 4.56641 3.00391C4.56641 2.31641 5.03906 1.5 5.64062 1.19922L7.1875 0.382812C7.44531 0.253906 7.875 0.167969 8.17578 0.167969C8.39062 0.167969 8.69141 0.210938 8.90625 0.296875L17.543 3.64844H17.5859L21.3672 1.62891C22.5273 1.02734 23.7305 0.726562 24.8906 0.726562C25.0195 0.726562 25.1484 0.726562 25.2773 0.726562C26.7812 0.855469 27.8125 1.37109 28.2422 2.31641C28.6719 3.26172 28.5 4.42188 27.6836 5.75391C26.9531 6.87109 25.9219 7.81641 24.6328 8.50391L12.6016 14.8633C12.1289 15.1211 11.6133 15.25 11.0977 15.25H5.72656C5.21094 15.25 4.52344 14.9492 4.17969 14.5625ZM3.75 9.79297L3.0625 10.1797L5.72656 13.1875H11.0547C11.2695 13.1875 11.4414 13.1445 11.6133 13.0586L23.6875 6.69922C24.6328 6.18359 25.4062 5.49609 25.9219 4.67969C26.3945 3.86328 26.4805 3.39062 26.3945 3.17578C26.3086 3.00391 25.793 2.83203 25.1484 2.78906C25.0625 2.78906 24.9766 2.78906 24.8906 2.78906C24.0742 2.78906 23.2148 3.00391 22.3555 3.47656L17.6719 5.92578L8.17578 2.1875L6.62891 3.00391L14.0195 7.85938L7.05859 11.5547L3.75 9.79297Z" fill="white"/>
</svg>
